# xmcd
#
# Track frame offsets: 
#        150
#        17189
#        29373
#        34424
#        41379
#        50329
#        55021
#        60398
#        66398
#        73151
#        81469
#        86789
#        92714
#        98911
#        105315
#        108990
#        111915
#        116115
#        143704
#        151200
#        162805
#        167658
#        184697
#        196881
#        201932
#        208887
#        217837
#        222529
#        227906
#        233906
#        240659
#        248977
#        254297
#        271336
#
# Disc length: 3684 seconds
#
# Revision: 1
# Processed by: cddbd v1.5.2PL0 Copyright (c) Steve Scherf et al.
# Submitted via: ExactAudioCopy v1.1
#
DISCID=ee0e6222
DTITLE=Music K-8 - Vol 20 No 3
DYEAR=1900
DGENRE=
TTITLE0=Why Music? Do You Know?
TTITLE1=Music Matters
TTITLE2=The Months of the Year
TTITLE3=Uno, Dos, Tres
TTITLE4=Winter Games
TTITLE5=Who Is on a Dollar Bill?
TTITLE6=Groundhog urking
TTITLE7=Friends and Fans
TTITLE8=I Like My Feet
TTITLE9=Winter Fun
TTITLE10=By the Rivers of Bylon
TTITLE11=Recorder Classroom Magazing preview
TTITLE12=Recorder Classroom Magazing preview 
TTITLE13=Recorder Classroom Magazing preview
TTITLE14=Recorder Classroom Magazing preview
TTITLE15=Recorder Classroom Magazing preview
TTITLE16=Recorder Classroom Magazing preview
TTITLE17=Partner Songs for Young Voices preview
TTITLE18=Rap of the Presidents preview
TTITLE19=Recorder Karate preview
TTITLE20=Warm-Ups for Young Voices preview
TTITLE21=Why Music? Do You Know? Instr
TTITLE22=Music Matters Instr
TTITLE23=The Months of the Year Instr
TTITLE24=Uno, Dos, Tres Instr
TTITLE25=Winter Games Instr
TTITLE26=Who Is on a Dollar Bill? Instr
TTITLE27=Groundhog Lurking Instr
TTITLE28=Friends and Fans Instr
TTITLE29=I Like My Feet Instr 
TTITLE30=Winter Fun Instr
TTITLE31=By the Rivers of Babylon Instr
TTITLE32=Why Music? Do You Know? Instr no recorders
TTITLE33=Groundhog Lurking unison
EXTD=
EXTT0=
EXTT1=
EXTT2=
EXTT3=
EXTT4=
EXTT5=
EXTT6=
EXTT7=
EXTT8=
EXTT9=
EXTT10=
EXTT11=
EXTT12=
EXTT13=
EXTT14=
EXTT15=
EXTT16=
EXTT17=
EXTT18=
EXTT19=
EXTT20=
EXTT21=
EXTT22=
EXTT23=
EXTT24=
EXTT25=
EXTT26=
EXTT27=
EXTT28=
EXTT29=
EXTT30=
EXTT31=
EXTT32=
EXTT33=
PLAYORDER=
